<svg xmlns="http://www.w3.org/2000/svg" width="360" height="140" viewBox="0 0 360 140" role="img" aria-labelledby="title desc">
  <title id="title">ICML logo</title>
  <desc id="desc">International Conference on Machine Learning venue logo.</desc>
  <rect width="360" height="140" fill="none"/>
  <g transform="translate(4 10)">
    <rect x="0" y="24" width="13" height="13" rx="2.5" fill="#ff9f00"/>
    <rect x="18" y="0" width="17" height="17" rx="3" fill="#ff2b1d"/>
    <rect x="18" y="36" width="24" height="24" rx="4" fill="#8bdc29"/>
    <path d="M72 3c37 0 59 21 59 61 0 39-18 65-47 65-31 0-51-23-51-59C33 31 48 3 72 3z" fill="#2f2b2f"/>
    <rect x="62" y="15" width="24" height="22" rx="4" fill="#fff"/>
    <rect x="94" y="20" width="13" height="13" rx="3" fill="#fff"/>
    <rect x="63" y="58" width="28" height="28" rx="4" fill="#fff"/>
    <rect x="105" y="46" width="11" height="11" rx="3" fill="#fff"/>
  </g>
  <g transform="translate(150 8)" fill="#111111" font-family="Arial, Helvetica, sans-serif">
    <text x="0" y="67" font-size="66" font-weight="800" letter-spacing="0">ICML</text>
    <line x1="0" y1="78" x2="205" y2="78" stroke="#111111" stroke-width="3"/>
    <text x="0" y="103" font-size="18" font-weight="400">International Conference</text>
    <text x="0" y="127" font-size="18" font-weight="400">On Machine Learning</text>
  </g>
</svg>
